<?xml version="1.0" standalone="no"?>
<!DOCTYPE svg PUBLIC "-//W3C//DTD SVG 20010904//EN"
 "http://www.w3.org/TR/2001/REC-SVG-20010904/DTD/svg10.dtd">
<svg version="1.0" xmlns="http://www.w3.org/2000/svg"
 width="400.000000pt" height="400.000000pt" viewBox="0 0 400.000000 400.000000"
 preserveAspectRatio="xMidYMid meet">
<metadata>
Created by potrace 1.14, written by Peter Selinger 2001-2017
</metadata>
<g transform="translate(0.000000,400.000000) scale(0.100000,-0.100000)"
fill="#000000" stroke="none">
<path d="M2969 3736 c-2 -2 -35 -6 -74 -9 -58 -5 -185 -22 -305 -41 -24 -4
-294 -62 -335 -72 -11 -3 -24 -6 -30 -8 -71 -17 -197 -63 -220 -81 -48 -36
-120 -114 -184 -200 -33 -44 -64 -84 -68 -90 -25 -30 -194 -275 -198 -288 -4
-8 -42 -24 -88 -36 -136 -37 -315 -111 -577 -240 -63 -30 -119 -56 -124 -56
-11 0 -12 94 -1 210 3 44 7 88 8 98 1 9 9 17 18 17 13 0 16 8 15 33 -2 17 2
40 8 50 8 13 8 20 -3 27 -12 7 -12 11 -2 23 7 9 9 26 5 41 -6 24 -4 26 25 26
34 0 39 11 15 34 -18 19 -28 20 -57 5 -18 -10 -23 -8 -35 10 -21 31 -32 26
-32 -14 0 -36 -2 -38 -53 -50 -24 -5 -28 -10 -23 -30 3 -13 1 -25 -4 -27 -16
-5 0 -65 24 -91 20 -21 21 -26 8 -45 -12 -18 -11 -24 2 -45 13 -19 16 -51 14
-169 l-2 -145 -60 -33 c-170 -93 -266 -167 -266 -206 0 -45 108 -113 263 -165
l67 -23 -1 -55 c-1 -31 2 -95 6 -144 l7 -87 -25 9 c-41 16 -75 -27 -45 -57 9
-9 9 -15 1 -23 -16 -16 19 -114 41 -113 8 1 13 -2 10 -7 -3 -5 2 -18 10 -30 8
-12 13 -26 11 -33 -24 -78 -24 -636 0 -1046 4 -52 8 -149 10 -215 3 -66 5
-128 5 -137 1 -23 20 -34 30 -18 4 6 5 33 3 58 -3 44 -4 80 -2 247 1 39 -2
111 -6 160 -5 75 -11 275 -16 610 -1 33 1 80 4 105 12 96 19 177 22 235 1 33
3 65 4 71 2 16 57 38 76 30 9 -3 14 -10 10 -16 -3 -5 -8 -31 -11 -57 -3 -26
-7 -61 -10 -78 -20 -159 15 -343 78 -412 25 -27 60 -24 139 10 29 13 89 32
132 41 43 10 110 28 148 41 38 13 69 22 69 19 0 -3 8 -1 18 4 9 5 31 12 49 15
29 6 34 2 70 -46 45 -61 45 -59 13 -287 -11 -85 -17 -134 -25 -205 -4 -27 -13
-79 -22 -115 -8 -36 -16 -74 -17 -85 -2 -11 -6 -38 -11 -60 -4 -22 -9 -49 -11
-59 -4 -21 -21 -36 -43 -36 -15 0 -79 -45 -97 -68 -14 -20 -6 -57 17 -78 14
-13 42 -19 102 -21 96 -5 163 -22 232 -59 120 -64 205 -94 278 -97 133 -6 281
30 362 89 49 35 159 82 206 88 60 7 133 15 199 21 29 2 60 11 68 19 13 12 9
17 -24 39 -49 30 -124 55 -189 62 -126 15 -124 13 -155 135 -33 130 -33 128
-8 136 13 4 26 11 29 16 3 5 33 11 65 12 109 6 114 15 90 179 -32 222 -32 225
-42 449 -5 133 -4 164 10 198 9 22 16 64 16 93 0 38 8 67 29 107 31 60 57 136
65 188 2 19 6 36 9 38 2 2 35 -8 73 -22 61 -23 118 -38 220 -58 16 -3 52 -10
79 -16 28 -6 64 -13 80 -15 17 -2 48 -7 70 -10 22 -3 47 -7 55 -10 34 -9 173
-18 287 -19 102 -1 125 2 139 16 16 15 15 20 -16 75 -18 32 -41 73 -51 91 -34
59 -202 295 -359 504 -151 199 -180 235 -319 396 -56 66 -74 99 -86 164 -5 26
-104 277 -118 299 -15 24 -3 45 40 72 21 14 49 35 63 48 14 13 55 43 92 67 75
49 70 49 206 -4 130 -52 189 -42 121 20 -19 17 -59 53 -89 80 -102 91 -185
146 -201 132z m-2029 -1630 c58 -8 111 -11 118 -8 9 3 11 -2 7 -19 -9 -39 -12
-151 -4 -186 5 -25 3 -32 -10 -32 -101 -4 -157 -12 -167 -26 -16 -22 -28 -19
-47 15 -13 20 -26 30 -43 30 l-25 0 1 103 c2 137 5 149 39 141 14 -3 73 -11
131 -18z m-253 -302 c-3 -3 -12 -4 -19 -1 -8 3 -5 6 6 6 11 1 17 -2 13 -5z"/>
</g>
</svg>
