<?xml version="1.0" standalone="no"?>
<!DOCTYPE svg PUBLIC "-//W3C//DTD SVG 20010904//EN"
 "http://www.w3.org/TR/2001/REC-SVG-20010904/DTD/svg10.dtd">
<svg version="1.0" xmlns="http://www.w3.org/2000/svg"
 width="1024.000000pt" height="1024.000000pt" viewBox="0 0 1024.000000 1024.000000"
 preserveAspectRatio="xMidYMid meet">
<metadata>
Created by potrace 1.14, written by Peter Selinger 2001-2017
</metadata>
<g transform="translate(0.000000,1024.000000) scale(0.100000,-0.100000)"
fill="#000000" stroke="none">
<path d="M7618 9565 c-2 -2 -39 -6 -83 -10 -44 -3 -93 -8 -110 -10 -16 -2 -61
-7 -100 -10 -38 -3 -96 -10 -127 -16 -32 -6 -68 -12 -80 -14 -13 -2 -43 -6
-68 -9 -25 -3 -54 -8 -65 -10 -11 -2 -45 -7 -75 -11 -30 -3 -68 -9 -85 -11
-16 -3 -46 -7 -65 -9 -77 -9 -142 -20 -200 -35 -19 -5 -93 -21 -165 -35 -71
-15 -139 -29 -150 -31 -20 -4 -42 -8 -100 -20 -109 -21 -409 -91 -460 -108 -5
-1 -23 -6 -40 -11 -48 -12 -253 -75 -348 -106 -78 -26 -143 -58 -184 -93 -50
-40 -240 -233 -289 -292 -89 -108 -87 -104 -209 -272 -63 -86 -119 -161 -123
-167 -24 -30 -253 -351 -295 -414 -28 -40 -92 -132 -143 -204 -60 -84 -92
-137 -89 -148 4 -13 -3 -18 -32 -24 -51 -11 -52 -11 -103 -24 -262 -69 -396
-114 -663 -225 -48 -20 -100 -42 -115 -48 -15 -6 -29 -12 -32 -13 -3 -1 -31
-13 -64 -28 -32 -15 -60 -27 -61 -27 -2 0 -47 -21 -101 -46 -55 -25 -124 -57
-154 -71 -95 -42 -110 -49 -340 -161 -124 -61 -254 -126 -289 -146 -35 -20
-66 -35 -68 -33 -7 8 -7 306 2 402 4 55 9 143 11 195 1 52 5 106 8 119 3 14 1
30 -5 38 -9 10 -7 14 7 20 28 10 32 21 24 59 -7 32 1 46 15 24 10 -16 44 -11
53 8 12 23 7 114 -7 141 -10 18 -9 22 6 28 41 15 46 74 8 99 l-25 16 25 30
c24 29 31 56 25 108 -8 80 -11 75 57 75 34 0 65 3 69 7 4 5 2 26 -5 48 -9 30
-21 45 -49 59 -33 17 -41 18 -70 6 -17 -8 -32 -11 -32 -8 0 3 -15 -6 -34 -20
-30 -23 -35 -25 -54 -11 -12 8 -19 22 -17 34 5 24 -23 58 -50 62 -27 4 -50
-44 -35 -72 13 -24 4 -65 -22 -102 -14 -21 -26 -26 -56 -26 -58 1 -110 -12
-118 -30 -18 -42 -12 -68 16 -77 24 -7 15 -35 -10 -35 -10 0 -26 -7 -34 -15
-14 -14 -14 -21 3 -66 11 -27 18 -57 16 -67 -4 -28 28 -77 88 -131 34 -32 34
-41 -3 -76 -30 -28 -41 -77 -21 -89 5 -3 23 -31 40 -61 32 -56 32 -56 25 -163
-4 -59 -7 -221 -8 -359 -1 -147 -6 -257 -11 -262 -6 -5 -46 -28 -90 -51 -166
-88 -231 -123 -265 -145 -19 -12 -80 -50 -135 -85 -221 -139 -353 -266 -342
-328 24 -124 219 -253 592 -392 37 -13 120 -42 130 -44 6 -1 38 -11 72 -20 54
-16 61 -21 57 -40 -12 -49 -4 -392 10 -496 3 -19 8 -75 11 -123 7 -85 6 -89
-12 -83 -56 18 -121 32 -132 28 -18 -6 -54 -83 -53 -114 1 -47 24 -61 104 -60
46 0 66 -3 57 -9 -8 -5 -35 -9 -62 -9 -64 0 -87 -23 -87 -89 0 -32 6 -56 19
-72 10 -13 24 -49 31 -79 18 -80 25 -89 60 -85 17 2 35 7 41 11 8 4 8 1 1 -12
-17 -34 5 -104 33 -104 13 0 14 -18 10 -117 -6 -127 -13 -223 -19 -263 -3 -14
-7 -56 -11 -95 -3 -38 -8 -92 -11 -120 -12 -121 -14 -158 -18 -295 -3 -80 0
-170 6 -200 5 -30 11 -226 13 -435 2 -209 6 -420 9 -470 7 -118 17 -325 21
-450 5 -136 15 -319 21 -380 3 -27 7 -171 9 -320 3 -251 10 -409 19 -424 3 -4
7 -27 11 -51 4 -25 9 -52 10 -60 2 -8 4 -21 4 -27 1 -7 12 -13 26 -13 34 0 40
30 36 180 -5 156 -5 323 -2 605 1 121 0 236 -2 255 -10 78 -18 225 -23 395 -2
99 -7 194 -9 210 -5 27 -11 262 -15 535 0 58 4 128 9 155 12 63 7 172 -11 250
-14 60 -18 333 -5 400 3 17 8 61 12 100 4 38 8 72 10 76 4 5 14 88 20 159 1
19 6 67 10 105 11 100 12 307 2 328 -6 14 -4 23 11 33 13 9 18 21 15 38 -5 22
2 28 58 57 41 21 81 33 112 35 47 2 48 1 43 -25 -8 -36 -13 -76 -21 -146 -4
-32 -8 -62 -10 -65 -1 -3 -6 -36 -10 -75 -4 -38 -8 -83 -10 -100 -16 -131 -22
-355 -11 -435 8 -65 17 -115 28 -155 5 -22 12 -51 15 -65 3 -14 6 -29 7 -35 2
-5 6 -23 10 -40 30 -121 65 -197 125 -278 52 -70 88 -90 153 -83 47 5 158 42
175 60 3 3 15 6 25 6 10 0 18 5 18 12 0 6 3 9 6 5 3 -3 33 7 67 22 56 25 91
37 138 46 8 2 44 10 80 19 35 8 75 18 89 20 14 3 50 12 80 21 30 8 69 18 85
21 17 3 62 16 100 29 97 33 253 79 355 105 47 12 95 28 108 36 30 20 31 20
147 -136 l96 -129 -2 -85 c-1 -47 -5 -107 -9 -133 -4 -26 -11 -75 -14 -108 -3
-33 -8 -69 -10 -80 -5 -27 -15 -91 -21 -142 -11 -90 -14 -119 -20 -158 -2 -22
-7 -70 -10 -106 -3 -36 -7 -76 -10 -89 -2 -13 -7 -44 -10 -69 -3 -25 -7 -55
-9 -67 -2 -12 -7 -45 -11 -75 -3 -30 -8 -65 -10 -79 -6 -32 -15 -88 -20 -120
-2 -14 -11 -53 -19 -87 -9 -34 -18 -75 -21 -90 -2 -15 -7 -38 -10 -50 -13 -58
-15 -71 -21 -113 -8 -59 -10 -67 -24 -120 -16 -60 -20 -78 -25 -125 -3 -22 -7
-52 -11 -67 -6 -29 -47 -68 -70 -68 -31 0 -128 -44 -175 -80 -29 -21 -69 -60
-91 -86 -38 -46 -39 -50 -33 -103 7 -64 24 -91 80 -131 45 -32 89 -38 310 -41
66 -1 149 -8 185 -15 56 -11 87 -21 195 -64 60 -23 135 -58 175 -80 96 -54
330 -160 420 -191 105 -35 178 -43 375 -43 162 1 217 6 384 39 56 11 191 60
261 95 80 40 182 98 190 109 17 22 339 177 395 190 74 17 85 19 255 37 30 3
57 7 61 10 4 2 49 6 101 9 86 5 127 8 249 20 52 5 128 35 146 57 18 21 -7 52
-65 81 -26 13 -76 39 -112 58 -77 42 -168 75 -230 84 -52 8 -59 10 -120 21
-25 5 -49 9 -55 9 -5 1 -35 5 -65 10 -49 8 -86 11 -158 14 -30 1 -69 44 -98
106 -19 42 -35 96 -90 320 -3 11 -7 29 -9 40 -3 11 -7 31 -11 45 -3 14 -8 43
-11 65 -3 22 -9 47 -14 56 -6 13 -3 16 14 14 33 -2 117 45 123 70 5 21 10 21
114 19 96 -1 131 2 217 20 56 12 100 72 95 131 -1 16 -23 211 -36 315 -2 14
-8 52 -14 85 -10 56 -19 114 -27 175 -2 14 -6 61 -10 105 -4 44 -8 91 -10 105
-4 25 -14 118 -21 194 -4 46 -11 141 -19 266 -3 47 -8 175 -10 285 -3 110 -7
230 -9 268 -4 58 -1 76 24 130 49 109 57 152 61 332 3 105 18 160 50 183 10 7
19 20 19 28 0 8 5 14 10 14 6 0 10 7 10 15 0 8 4 23 10 33 5 9 21 46 35 82 14
36 30 74 35 85 20 43 60 199 66 258 7 81 12 108 18 115 3 2 25 -5 49 -16 92
-43 305 -121 377 -137 41 -9 86 -19 100 -22 14 -4 30 -7 35 -8 6 -2 26 -5 45
-9 19 -3 98 -20 175 -36 77 -17 151 -32 165 -34 14 -2 75 -13 135 -25 127 -24
150 -27 225 -36 30 -4 57 -8 60 -10 3 -2 34 -6 70 -10 36 -4 72 -8 80 -10 33
-6 154 -19 275 -30 33 -3 80 -7 105 -10 62 -6 315 -19 370 -18 57 0 207 11
238 17 41 9 87 41 96 68 8 23 -7 54 -128 263 -76 129 -163 270 -193 312 -63
88 -273 395 -288 421 -5 9 -12 19 -16 22 -3 3 -58 77 -122 165 -103 141 -312
419 -352 468 -8 9 -15 20 -15 23 0 4 -12 21 -27 39 -16 18 -37 45 -48 60 -11
16 -29 40 -41 54 -11 14 -63 82 -115 151 -51 69 -99 132 -106 140 -143 179
-203 252 -258 314 -5 6 -39 47 -75 91 -35 44 -67 82 -71 85 -3 3 -32 37 -64
75 -32 39 -82 95 -110 125 -57 60 -80 99 -88 145 -3 17 -10 45 -16 63 -5 18
-10 33 -10 35 1 1 -2 13 -5 27 -3 14 -8 34 -10 45 -1 11 -6 27 -9 35 -3 8 -11
33 -18 55 -6 22 -20 58 -29 80 -10 22 -46 112 -80 200 -35 88 -93 229 -130
314 l-67 154 54 44 c29 24 55 43 59 43 7 0 88 56 106 73 45 44 187 154 268
207 52 35 101 69 108 77 8 8 36 25 64 39 l49 25 87 -26 c47 -15 172 -60 277
-100 175 -67 249 -90 283 -88 6 0 20 1 30 2 30 2 55 26 55 54 0 29 -47 77
-180 182 -41 32 -100 86 -195 177 -33 32 -73 68 -90 80 -16 13 -49 38 -71 57
-80 64 -152 108 -204 123 -29 9 -53 14 -55 13z m-5570 -4124 c18 -5 56 -12 85
-16 28 -3 61 -9 71 -12 11 -3 33 -7 50 -9 17 -1 45 -5 61 -7 144 -23 352 -34
403 -23 18 4 22 1 18 -12 -23 -88 -28 -138 -29 -322 -1 -140 4 -204 19 -251 4
-14 -6 -18 -53 -22 -32 -3 -71 -8 -88 -12 -58 -13 -161 -20 -212 -15 -70 7
-87 0 -118 -54 -24 -42 -28 -44 -51 -34 -13 6 -24 14 -25 17 -4 31 -10 46 -22
53 -8 4 -20 21 -27 37 -17 42 -96 69 -147 50 -16 -6 -21 -5 -18 4 2 7 6 127 9
267 5 277 13 370 30 370 6 0 26 -4 44 -9z"/>
</g>
</svg>
