<?xml version="1.0" standalone="no"?>
<!DOCTYPE svg PUBLIC "-//W3C//DTD SVG 20010904//EN"
 "http://www.w3.org/TR/2001/REC-SVG-20010904/DTD/svg10.dtd">
<svg version="1.0" xmlns="http://www.w3.org/2000/svg"
 width="800.000000pt" height="800.000000pt" viewBox="0 0 800.000000 800.000000"
 preserveAspectRatio="xMidYMid meet">
<style>
    path {
      fill: black;
    }
    @media (prefers-color-scheme: dark) {
      path {
        fill: white;
      }
    }
  </style>
<g transform="translate(0.000000,800.000000) scale(0.100000,-0.100000)" stroke="none">
<path d="M4510 7837 c-14 -6 -33 -21 -42 -32 -10 -11 -22 -25 -28 -32 -5 -7
-10 -18 -10 -26 0 -7 -4 -17 -9 -22 -5 -6 -32 -55 -61 -110 -29 -55 -57 -103
-62 -106 -6 -3 -9 -9 -8 -13 2 -6 -66 -133 -129 -246 -5 -8 -20 -37 -33 -63
-12 -27 -36 -64 -53 -83 l-30 -34 -158 -4 c-130 -4 -160 -2 -172 11 -8 8 -15
11 -15 7 0 -4 -11 3 -25 16 -14 13 -25 29 -25 37 0 7 -5 13 -11 13 -5 0 -8 4
-5 9 3 5 -1 11 -9 15 -8 3 -15 12 -15 21 0 8 -4 15 -8 15 -7 0 -48 62 -45 67
1 1 -11 16 -28 34 -16 17 -29 37 -29 45 0 8 -4 14 -9 14 -5 0 -23 21 -39 48
-17 26 -48 72 -69 102 -22 30 -61 87 -88 125 -27 39 -55 76 -62 83 -7 7 -16
19 -21 27 -13 24 -78 28 -135 9 -29 -10 -55 -19 -59 -20 -5 -1 -10 -3 -13 -4
-3 -1 -9 -3 -14 -4 -5 0 -13 -4 -17 -8 -4 -5 -18 -8 -30 -8 -13 0 -26 -5 -29
-11 -4 -6 -13 -8 -21 -5 -8 3 -14 2 -14 -2 0 -7 -84 -37 -105 -37 -5 0 -12 -2
-15 -5 -5 -5 -196 -71 -215 -74 -5 -1 -14 -4 -20 -7 -5 -4 -34 -14 -62 -23
-31 -10 -62 -29 -74 -44 -19 -24 -20 -35 -15 -127 4 -55 9 -122 11 -150 5 -55
15 -187 20 -250 1 -22 6 -80 10 -130 14 -159 13 -187 -10 -222 -11 -18 -26
-33 -33 -33 -7 0 -15 -7 -18 -15 -4 -8 -11 -15 -18 -15 -6 0 -27 -14 -46 -30
-19 -16 -41 -30 -47 -30 -7 0 -13 -4 -13 -8 0 -4 -24 -22 -53 -40 -53 -32
-129 -44 -153 -24 -5 5 -124 55 -264 112 -140 57 -258 108 -261 113 -3 5 -10
8 -15 7 -8 -1 -36 7 -54 14 -3 2 -18 9 -35 16 -16 7 -32 14 -35 15 -3 1 -12 4
-20 8 -36 15 -120 5 -120 -14 0 -5 -14 -23 -30 -41 -17 -17 -30 -35 -30 -40 0
-5 -6 -6 -12 -2 -7 4 -10 4 -6 0 4 -5 -18 -38 -48 -74 -30 -36 -54 -70 -54
-75 0 -4 -5 -5 -10 -2 -5 3 -10 0 -10 -7 0 -8 -12 -27 -28 -44 -80 -90 -232
-283 -233 -297 0 -7 -2 -21 -4 -32 -3 -13 11 -41 35 -73 22 -29 40 -57 40 -62
0 -6 4 -10 8 -10 5 0 24 -21 42 -47 19 -27 44 -59 57 -72 12 -14 20 -28 17
-33 -3 -4 -1 -8 4 -8 5 0 29 -26 53 -57 23 -32 46 -59 51 -61 4 -2 8 -8 8 -13
0 -8 20 -35 48 -64 6 -8 12 -17 12 -22 0 -5 9 -15 20 -23 11 -8 20 -19 20 -26
0 -6 9 -19 20 -29 59 -53 70 -126 31 -210 -28 -61 -39 -87 -82 -192 -34 -82
-67 -118 -118 -128 -11 -2 -26 -7 -33 -11 -7 -4 -8 -3 -4 4 5 9 1 9 -17 3 -13
-5 -37 -12 -53 -15 -16 -3 -40 -7 -54 -10 -14 -3 -41 -7 -60 -10 -19 -3 -45
-8 -56 -10 -12 -2 -39 -7 -60 -10 -22 -4 -46 -8 -54 -11 -8 -2 -31 -6 -50 -9
-19 -3 -48 -8 -65 -11 -16 -3 -57 -11 -90 -17 -33 -6 -69 -12 -80 -14 -11 -2
-29 -5 -40 -8 -11 -2 -27 -5 -36 -5 -8 -1 -25 -10 -36 -20 -12 -11 -23 -18
-25 -15 -3 2 -5 -2 -6 -8 0 -7 -5 -31 -11 -53 -11 -47 -20 -101 -25 -167 -2
-26 -7 -59 -10 -75 -5 -25 -12 -91 -22 -183 -1 -19 -6 -96 -9 -171 l-6 -135
40 -14 c23 -7 41 -17 41 -22 0 -5 4 -7 8 -4 9 5 53 -10 210 -70 37 -14 73 -26
80 -27 6 0 12 -3 12 -7 0 -4 6 -7 13 -7 27 0 378 -133 396 -150 29 -29 40 -56
56 -145 9 -46 25 -131 36 -189 20 -105 19 -161 -1 -167 -5 -2 -8 -7 -5 -11 6
-11 -71 -81 -81 -73 -4 4 -4 2 -1 -4 3 -6 -13 -26 -36 -45 -22 -19 -52 -46
-65 -61 -14 -15 -30 -25 -36 -21 -6 3 -8 3 -4 -1 3 -4 -24 -35 -60 -69 -37
-34 -79 -73 -93 -87 -49 -47 -84 -75 -91 -72 -5 1 -7 -1 -5 -6 1 -4 -22 -30
-52 -57 -63 -59 -84 -100 -72 -141 8 -25 67 -144 111 -224 8 -14 15 -31 16
-39 2 -8 7 -17 12 -20 5 -3 17 -24 27 -46 10 -22 27 -52 37 -67 11 -16 16 -32
13 -38 -3 -5 -2 -10 2 -10 9 0 86 -144 83 -156 -4 -16 66 -51 95 -47 50 7 80
12 80 13 0 2 44 10 70 13 11 1 22 5 25 9 3 4 23 9 45 12 22 2 40 5 40 6 0 1 9
3 19 5 11 2 49 11 85 19 37 9 77 18 91 20 14 3 35 7 48 10 89 22 157 38 182
41 14 2 25 4 25 5 0 1 11 4 24 6 14 2 27 6 29 8 2 3 22 -2 45 -10 43 -15 81
-47 69 -59 -4 -4 -2 -5 4 -3 10 3 250 -237 268 -269 18 -32 17 -77 -4 -161
-12 -48 -23 -94 -25 -102 -3 -14 -44 -169 -67 -255 -5 -22 -13 -47 -16 -55 -2
-8 -6 -22 -7 -30 -1 -8 -12 -53 -25 -100 -13 -47 -24 -107 -25 -134 -1 -63 2
-66 128 -135 29 -16 76 -42 105 -60 29 -17 57 -31 62 -31 6 0 10 -5 10 -11 0
-5 5 -7 10 -4 6 3 10 2 10 -3 0 -5 8 -12 18 -15 29 -10 146 -77 153 -88 3 -6
8 -10 10 -10 13 2 49 -13 49 -20 0 -5 9 -9 21 -9 11 0 18 -4 15 -8 -3 -5 0 -9
7 -10 7 0 30 -4 52 -7 37 -6 44 -3 93 39 30 25 51 46 49 46 -3 0 29 34 70 75
42 41 80 75 85 75 4 0 7 3 6 8 -4 10 39 52 54 52 6 0 9 3 5 6 -7 7 185 200
196 196 4 -1 6 2 5 6 -5 13 75 82 97 84 33 2 58 1 90 -5 71 -14 91 -18 107
-23 18 -5 45 -11 93 -20 17 -2 48 -10 70 -15 22 -6 49 -13 60 -15 55 -10 100
-48 110 -92 2 -9 17 -54 33 -99 16 -45 27 -85 24 -88 -3 -3 1 -5 8 -5 7 0 11
-3 7 -6 -3 -4 3 -29 13 -57 11 -27 17 -54 14 -59 -3 -4 -1 -8 4 -8 7 0 47
-112 47 -135 0 -5 3 -12 7 -15 4 -3 9 -15 11 -25 1 -11 5 -24 9 -30 3 -5 18
-49 33 -97 18 -59 35 -94 51 -107 13 -10 20 -21 17 -25 -4 -4 83 -4 192 -1
175 5 270 10 270 15 0 0 25 3 55 5 111 7 186 17 218 31 17 7 32 10 32 6 1 -4
8 9 17 28 17 37 18 41 26 80 3 14 10 45 16 70 5 25 13 61 16 80 3 19 10 51 15
70 5 19 11 46 14 60 2 14 9 45 15 70 5 25 10 46 10 48 1 1 1 3 2 5 0 1 2 13 4
27 6 32 13 65 15 65 1 0 3 12 5 27 9 67 39 185 53 210 9 15 34 36 57 46 34 16
181 74 195 78 3 0 12 4 20 7 66 28 156 55 171 51 11 -2 28 -6 39 -9 12 -2 49
-29 84 -60 35 -30 66 -55 70 -55 12 0 44 -38 38 -45 -4 -4 -2 -5 4 -3 9 3 48
-23 87 -57 7 -6 55 -44 107 -85 52 -41 97 -77 100 -80 3 -3 23 -19 45 -35 22
-17 47 -37 55 -46 15 -16 52 -32 80 -34 17 -1 93 39 120 64 25 22 36 30 105
81 33 24 81 61 108 83 26 21 47 35 47 30 0 -4 5 0 11 10 6 9 14 15 20 12 5 -4
9 -2 9 3 0 10 116 102 129 102 5 0 11 7 15 15 3 8 12 15 20 15 8 0 24 19 35
43 18 37 19 48 9 82 -6 22 -12 42 -13 45 0 3 -11 27 -23 54 -13 28 -25 61 -29
75 -3 14 -11 32 -17 40 -6 8 -10 17 -10 20 1 3 -2 15 -6 26 -5 11 -23 58 -40
105 -18 47 -36 94 -41 105 -5 11 -20 52 -34 90 -15 39 -35 93 -46 122 -23 62
-19 111 13 156 108 154 191 256 219 269 30 15 51 15 164 3 28 -4 66 -8 85 -10
19 -2 64 -6 100 -10 67 -7 101 -11 180 -19 47 -4 108 -11 195 -22 101 -12 141
-5 166 29 13 19 77 178 83 210 2 7 9 26 16 42 7 17 23 61 37 99 13 39 31 82
39 98 8 15 12 28 9 28 -3 0 2 17 11 38 34 80 70 198 66 218 -4 27 -45 72 -97
106 -22 14 -49 33 -60 42 -17 14 -87 66 -150 111 -11 8 -45 33 -75 55 -30 23
-64 47 -75 55 -101 73 -194 143 -211 160 -27 27 -40 62 -38 105 5 105 15 238
20 262 6 29 81 101 95 92 5 -3 9 -1 9 4 0 6 10 12 23 16 12 3 64 27 115 55 50
27 92 47 92 46 0 -2 19 7 43 20 61 34 161 81 166 77 2 -2 7 1 10 6 7 11 151
85 151 77 0 -5 29 18 56 43 28 27 27 65 -6 216 -17 83 -33 160 -35 171 -1 11
-8 38 -13 60 -6 22 -13 51 -16 65 -2 14 -10 48 -16 75 -13 58 -18 80 -25 115
-3 14 -9 40 -14 58 -5 18 -11 36 -12 40 -11 42 -55 64 -134 68 -65 3 -238 13
-325 19 -30 2 -104 7 -165 10 -60 4 -126 8 -145 10 -19 2 -52 4 -72 4 -24 1
-46 9 -58 21 -11 11 -23 20 -26 19 -13 -1 -95 146 -87 155 4 3 2 6 -4 6 -14 0
-46 77 -48 115 -2 37 14 77 28 68 6 -3 7 -1 4 4 -4 6 2 22 13 36 11 14 20 28
20 31 0 10 63 111 74 118 6 4 7 8 3 8 -4 0 5 19 20 43 50 76 54 82 59 100 4 9
10 17 14 17 4 0 10 10 14 23 3 12 15 32 26 45 11 12 18 22 14 22 -4 0 -1 8 7
18 8 9 24 34 34 55 11 21 29 48 40 60 11 12 19 23 17 24 -1 2 5 17 13 34 26
48 13 85 -52 152 -32 34 -68 69 -80 79 -13 11 -22 24 -20 31 1 6 -3 11 -8 12
-16 0 -65 52 -57 60 4 4 2 5 -3 4 -13 -5 -55 32 -49 43 3 4 0 8 -6 8 -5 0 -65
57 -133 126 -67 69 -133 131 -147 139 -35 18 -80 10 -140 -25 -28 -16 -53 -30
-55 -30 -2 0 -30 -15 -62 -34 -70 -40 -137 -78 -218 -121 -33 -18 -109 -61
-170 -95 -60 -34 -119 -63 -130 -66 -11 -2 -30 -6 -43 -8 -13 -3 -46 8 -80 26
-131 70 -182 102 -179 110 1 4 -6 13 -16 20 -23 17 -26 37 -32 218 -4 136 -9
266 -20 550 -2 41 -3 78 -4 81 -3 20 -57 57 -98 67 -43 10 -278 65 -328 77
-11 2 -22 4 -25 4 -3 0 -18 4 -33 10 -15 6 -42 13 -60 16 -18 3 -61 12 -96 21
-36 9 -73 18 -84 20 -10 2 -27 6 -37 9 -37 12 -56 12 -80 2z m-265 -1601 c52
-8 98 -15 145 -21 25 -3 54 -7 65 -10 11 -2 56 -13 100 -24 73 -17 211 -60
260 -80 128 -54 200 -87 211 -98 8 -8 14 -12 14 -9 0 7 82 -32 90 -43 3 -3 27
-17 54 -31 26 -14 50 -31 53 -37 3 -7 9 -11 13 -8 4 2 19 -6 34 -20 15 -13 30
-25 34 -26 16 -2 171 -127 165 -133 -4 -3 0 -6 7 -6 7 0 26 -13 41 -30 16 -16
29 -28 29 -25 0 8 179 -185 208 -224 15 -20 32 -41 37 -47 6 -6 28 -37 50 -70
22 -32 45 -64 51 -71 21 -22 132 -227 169 -313 21 -47 42 -94 47 -105 5 -12
10 -27 12 -35 2 -8 9 -28 16 -45 7 -16 14 -36 16 -43 1 -7 12 -45 24 -83 11
-38 18 -74 15 -79 -3 -6 -2 -10 3 -10 5 0 9 -6 9 -12 0 -7 4 -26 7 -43 39
-174 58 -460 42 -620 -3 -22 -7 -67 -11 -101 -3 -33 -8 -72 -11 -85 -3 -13 -7
-40 -10 -59 -2 -19 -7 -46 -10 -60 -4 -14 -8 -40 -11 -57 -3 -18 -9 -33 -15
-33 -5 0 -7 -4 -3 -10 3 -5 -1 -25 -9 -45 -8 -19 -13 -35 -11 -35 7 0 -61
-185 -106 -287 -23 -51 -45 -93 -50 -93 -5 0 -8 -3 -7 -7 4 -11 -112 -214
-135 -238 -7 -7 -19 -23 -27 -35 -8 -13 -23 -32 -32 -42 -10 -10 -15 -18 -10
-18 4 -1 -4 -10 -17 -20 -13 -11 -21 -20 -17 -20 3 0 -7 -14 -22 -31 -48 -55
-242 -253 -242 -247 0 3 -17 -11 -38 -31 -49 -47 -82 -73 -82 -64 0 4 -6 0
-12 -8 -18 -22 -114 -89 -127 -89 -6 0 -11 -4 -11 -8 0 -10 -192 -119 -199
-114 -2 2 -7 -1 -10 -7 -7 -11 -120 -63 -201 -93 -30 -11 -64 -24 -75 -29 -26
-11 -189 -58 -228 -65 -17 -2 -34 -7 -38 -10 -4 -2 -25 -6 -46 -8 -21 -3 -49
-7 -63 -10 -116 -27 -411 -39 -570 -22 -41 4 -82 8 -90 8 -8 0 -60 9 -115 19
-132 23 -157 29 -175 35 -8 3 -40 12 -70 20 -30 8 -71 21 -90 28 -31 13 -66
26 -80 31 -59 20 -182 76 -250 113 -36 20 -75 40 -87 46 -13 6 -23 14 -23 19
0 4 -5 7 -11 7 -23 0 -261 174 -252 184 4 3 -1 6 -11 6 -9 0 -19 7 -22 15 -4
8 -11 15 -17 15 -20 0 -245 239 -325 346 -80 107 -183 271 -181 288 0 5 -3 12
-8 15 -9 6 -74 126 -74 136 0 2 -8 25 -19 51 -11 25 -20 51 -20 58 0 7 -3 16
-7 19 -6 7 -41 98 -48 127 -2 8 -11 42 -20 75 -9 33 -18 69 -20 80 -3 11 -8
34 -11 50 -4 17 -8 37 -9 45 -1 8 -5 33 -9 55 -12 71 -16 108 -22 225 -8 138
-8 126 1 275 8 123 12 170 15 170 1 0 3 11 5 25 6 51 17 107 32 165 8 33 16
65 17 70 4 16 28 98 34 115 3 8 7 24 9 35 2 10 9 23 16 27 6 4 8 8 4 8 -5 0
-5 6 0 13 4 6 8 17 9 23 3 22 86 199 94 202 5 2 6 10 3 18 -3 8 0 14 6 14 6 0
11 5 11 11 0 15 110 199 132 221 10 10 18 20 18 23 0 6 40 65 50 75 3 3 25 30
50 60 57 70 112 129 175 190 84 80 108 101 170 148 33 25 62 49 65 53 9 11 55
33 63 31 5 -1 6 1 3 6 -3 5 7 15 22 23 15 8 29 17 32 20 8 9 127 79 135 79 4
0 19 8 33 18 29 19 234 111 262 116 3 1 10 4 15 7 6 4 24 10 40 14 34 9 35 10
55 18 90 35 333 84 458 93 48 3 88 7 90 9 5 5 342 -3 377 -9z"/>
</g>
</svg>
