<?xml version="1.0" standalone="no"?>
<!DOCTYPE svg PUBLIC "-//W3C//DTD SVG 20010904//EN"
 "http://www.w3.org/TR/2001/REC-SVG-20010904/DTD/svg10.dtd">
<svg version="1.0" xmlns="http://www.w3.org/2000/svg"
 width="512.000000pt" height="512.000000pt" viewBox="0 0 512.000000 512.000000"
 preserveAspectRatio="xMidYMid meet">
<metadata>
Created by potrace 1.14, written by Peter Selinger 2001-2017
</metadata>
<g transform="translate(0.000000,512.000000) scale(0.100000,-0.100000)"
fill="#000000" stroke="none">
<path d="M3140 4491 c0 -17 4 -33 10 -36 5 -3 17 -30 26 -60 18 -62 29 -74 51
-52 14 14 14 24 3 79 -16 84 -25 98 -60 98 -26 0 -30 -3 -30 -29z"/>
<path d="M3254 4483 c3 -21 6 -55 6 -76 0 -36 2 -38 28 -35 24 3 27 7 30 47 5
61 -14 101 -46 101 -23 0 -24 -2 -18 -37z"/>
<path d="M3433 4513 c-40 -5 -50 -30 -24 -57 18 -18 23 -18 46 -6 26 14 77 5
137 -26 25 -13 27 -17 21 -62 -8 -69 16 -115 73 -143 93 -45 217 -11 259 71
31 61 10 108 -74 161 -53 34 -108 38 -142 10 -20 -16 -26 -17 -44 -5 -33 22
-166 64 -194 62 -14 0 -40 -3 -58 -5z m426 -121 c63 -46 14 -122 -79 -122 -68
0 -105 31 -95 81 8 46 45 68 104 64 24 -2 56 -12 70 -23z"/>
<path d="M2950 4421 c-83 -60 -150 -143 -200 -246 -35 -71 -45 -103 -64 -195
l-5 -25 -188 -2 c-224 -3 -389 -16 -618 -48 -315 -45 -414 -83 -535 -205 -126
-126 -186 -279 -197 -507 -4 -88 -10 -123 -18 -123 -7 0 -53 -12 -101 -26
-206 -59 -399 -189 -534 -358 -40 -52 -65 -71 -140 -111 -99 -53 -154 -105
-189 -180 -25 -54 -28 -146 -6 -198 17 -41 68 -103 99 -119 88 -47 218 -12
261 72 13 25 13 29 -1 41 -26 21 -44 66 -44 109 0 77 74 116 134 69 21 -17 26
-29 26 -66 0 -58 28 -99 80 -114 69 -21 137 27 160 112 15 53 5 102 -36 178
l-35 63 27 35 c37 49 128 118 208 158 98 50 99 50 114 -45 19 -118 57 -244
102 -336 72 -147 184 -234 351 -274 83 -19 340 -50 420 -50 41 0 41 0 35 -32
-24 -137 -30 -419 -13 -658 2 -24 0 -25 -83 -31 -145 -11 -221 -40 -284 -109
-21 -23 -44 -57 -52 -76 -17 -40 -18 -117 -3 -146 6 -11 8 -22 5 -25 -3 -3
-44 -10 -93 -15 -48 -5 -92 -14 -98 -20 -7 -7 342 -8 1165 -3 1102 6 1347 11
1310 28 -34 15 -140 27 -233 27 -90 0 -99 2 -92 18 4 9 12 45 18 79 10 55 9
68 -9 110 -23 57 -71 93 -123 93 -60 0 -222 28 -295 50 l-69 22 6 231 c5 205
18 379 32 443 4 20 13 22 117 27 277 13 501 155 628 398 58 112 83 213 84 341
1 126 -4 124 111 53 68 -42 190 -157 213 -202 10 -19 9 -23 -9 -28 -11 -4 -36
-21 -55 -37 -116 -102 -89 -267 46 -285 63 -9 86 3 135 67 62 80 99 107 161
115 48 7 53 5 88 -26 33 -29 37 -37 33 -68 -2 -20 -10 -50 -17 -67 -17 -41 -6
-80 35 -121 26 -26 41 -33 73 -33 117 0 192 90 192 230 0 94 -28 165 -92 235
-76 84 -124 108 -223 113 l-82 4 -28 57 c-105 216 -335 394 -551 427 l-42 6 5
82 c10 161 -36 277 -161 402 -67 67 -97 89 -176 127 -169 82 -299 105 -633
114 -136 3 -250 9 -252 13 -9 14 26 125 60 195 40 83 115 170 183 214 27 17
51 31 54 31 3 0 9 -11 12 -25 7 -26 62 -95 77 -95 14 0 11 87 -5 124 -17 40
-51 66 -86 66 -14 0 -53 -21 -90 -49z m140 -541 c238 -19 402 -57 549 -128
143 -70 217 -165 241 -314 16 -104 18 -708 2 -788 -66 -321 -271 -492 -665
-552 -100 -15 -1163 -13 -1354 3 -215 17 -381 76 -466 163 -75 77 -151 258
-182 434 -20 115 -20 442 0 572 49 326 192 483 504 550 96 21 304 46 486 59
171 12 737 12 885 1z m925 -747 c-4 -10 -14 -53 -22 -95 -8 -43 -19 -78 -24
-78 -5 0 -8 43 -6 95 l2 95 29 0 c23 0 27 -3 21 -17z m153 -34 c23 -10 42 -24
42 -31 0 -7 -23 -45 -51 -85 l-51 -71 -34 16 c-27 13 -33 21 -28 37 3 11 8 34
10 50 3 17 10 49 16 73 12 47 11 47 96 11z m209 -152 l31 -29 -61 -50 c-77
-62 -83 -72 -61 -106 11 -17 -5 -7 -44 28 -33 30 -63 65 -67 76 -5 16 6 39 46
93 l52 71 36 -26 c20 -15 50 -40 68 -57z m-3247 -27 c0 -44 -4 -80 -9 -80 -5
0 -9 12 -9 28 0 15 -5 47 -11 72 -14 60 -14 60 9 60 18 0 20 -7 20 -80z m-103
54 c-3 -3 1 -27 9 -52 23 -79 19 -99 -25 -122 -45 -22 -48 -20 -75 53 -10 26
-24 54 -33 62 -13 13 -12 16 9 24 13 5 39 16 58 24 36 16 68 22 57 11z m-162
-126 c10 -29 24 -63 32 -76 17 -28 9 -40 -41 -67 l-35 -19 -65 62 -65 63 52
33 c65 41 90 55 99 56 3 0 14 -24 23 -52z m3619 -42 c29 -50 33 -76 11 -76
-10 0 -15 -10 -15 -29 0 -17 -4 -33 -10 -36 -6 -4 -10 10 -10 35 0 34 -3 41
-17 38 -14 -3 -19 -15 -21 -62 -3 -65 11 -95 27 -55 7 16 10 19 10 7 1 -29 21
-31 60 -4 64 45 185 54 252 20 36 -18 94 -86 121 -142 l21 -45 -18 -94 c-23
-118 -30 -127 -81 -119 -64 11 -70 19 -45 54 33 47 36 84 12 135 -30 62 -83
96 -165 108 -59 8 -71 7 -114 -13 -26 -12 -85 -59 -130 -103 l-84 -80 -29 33
c-16 18 -29 42 -29 55 0 50 60 97 123 97 26 0 39 6 51 25 20 30 21 55 1 55 -8
0 -13 6 -10 13 2 6 6 36 10 65 5 48 4 52 -14 52 -14 0 -23 -9 -28 -27 -7 -26
-8 -25 -14 17 -7 43 -6 46 33 83 22 20 49 37 58 37 11 0 29 -18 44 -44z
m-3784 -92 c38 -40 41 -48 27 -56 -10 -5 -17 -18 -17 -28 0 -12 -7 -20 -16
-20 -12 0 -15 6 -10 24 7 28 -9 43 -28 27 -9 -7 -16 -7 -24 1 -15 15 -29 2
-34 -32 -3 -24 -4 -24 -21 9 l-17 34 36 43 c19 24 41 44 48 44 7 0 32 -21 56
-46z m61 -101 c-8 -15 -10 -15 -11 -2 0 17 10 32 18 25 2 -3 -1 -13 -7 -23z
m-84 -85 c27 -19 62 -40 80 -47 36 -15 41 -23 49 -95 8 -63 -13 -112 -51 -122
-34 -9 -45 2 -45 45 0 71 -66 140 -143 148 -62 7 -109 -11 -151 -58 -30 -32
-36 -47 -36 -83 0 -56 11 -84 44 -117 l27 -27 -38 -23 c-50 -31 -91 -29 -137
6 -48 37 -66 73 -66 132 1 65 27 119 87 175 88 81 156 108 260 103 64 -3 79
-7 120 -37z m1701 -513 c-6 -14 -13 -23 -15 -21 -5 5 15 46 22 46 3 0 -1 -11
-7 -25z m-65 -17 c-13 -26 -18 -29 -21 -15 -5 26 5 47 23 47 14 0 13 -4 -2
-32z m391 24 l59 -2 -7 -112 c-4 -62 -13 -176 -20 -253 -7 -77 -11 -193 -8
-257 l4 -118 -30 -34 c-44 -50 -56 -96 -49 -188 l6 -78 -86 0 -87 0 27 28 c30
31 43 104 33 177 -8 47 -55 115 -81 115 -32 0 -56 406 -38 637 l6 82 51 3 c50
3 105 3 220 0z m267 -32 c-4 -20 -10 -30 -14 -23 -7 11 10 70 18 62 2 -2 0
-20 -4 -39z m75 -4 c-3 -14 -13 -26 -21 -26 -18 0 -19 9 -5 46 14 35 36 17 26
-20z m-914 2 c-8 -8 -9 -4 -5 13 4 13 8 18 11 10 2 -7 -1 -18 -6 -23z m61 12
c-3 -11 -9 -20 -15 -20 -5 0 -4 9 2 20 6 11 12 20 14 20 2 0 2 -9 -1 -20z m60
0 c-6 -22 -23 -38 -23 -21 0 17 12 41 20 41 5 0 6 -9 3 -20z m667 -5 c0 -14
-4 -25 -10 -25 -5 0 -10 11 -10 25 0 14 5 25 10 25 6 0 10 -11 10 -25z m-794
-132 c9 -45 43 -22 44 30 1 20 2 20 16 -5 17 -33 34 -36 34 -8 0 23 15 27 24
5 7 -20 33 -19 44 2 9 14 10 14 16 -5 10 -31 36 -28 36 3 0 14 5 25 10 25 6 0
10 -23 10 -50 0 -44 -3 -52 -24 -59 -22 -9 -227 -31 -234 -25 -2 1 0 35 4 76
4 40 9 64 11 53 2 -11 6 -30 9 -42z m784 -13 c11 0 21 5 21 10 1 6 2 15 3 20
0 6 4 10 9 10 4 0 11 0 16 0 4 0 8 -17 7 -37 -1 -32 2 -38 19 -38 16 0 19 6
17 32 -2 17 2 34 7 38 7 4 11 -7 11 -28 0 -21 6 -37 14 -40 18 -7 26 1 26 29
0 13 4 25 9 28 4 3 5 -13 0 -37 -4 -23 -8 -46 -9 -52 0 -6 -45 -11 -108 -13
-59 -1 -115 -5 -124 -8 -16 -5 -18 2 -17 63 1 47 3 59 8 38 9 -42 35 -39 39 5
l4 35 14 -27 c8 -16 23 -28 34 -28z m-551 -260 l1 -45 -111 -2 c-61 -1 -117
-7 -123 -13 -21 -17 -26 0 -26 85 l0 81 103 13 c56 8 111 17 122 21 18 7 21 2
27 -44 3 -28 6 -71 7 -96z m691 83 c0 -16 -3 -57 -6 -93 l-6 -65 -126 -3 -125
-3 7 47 c3 26 6 69 6 95 l0 49 125 0 125 0 0 -27z m-697 -210 c16 -4 18 -12
13 -44 -3 -21 -9 -57 -12 -79 -7 -48 -34 -56 -34 -10 0 23 -4 30 -20 30 -15 0
-20 -7 -20 -25 0 -15 -6 -25 -14 -25 -16 0 -31 -34 -22 -49 10 -16 76 -22 110
-10 29 11 37 10 51 -4 9 -10 20 -17 24 -17 5 0 11 -22 15 -48 3 -26 13 -58 22
-71 24 -34 6 -41 -104 -41 -71 0 -93 3 -90 13 3 7 28 14 59 17 39 4 54 9 54
20 0 12 -13 15 -70 13 -81 -3 -121 8 -62 16 21 3 39 11 40 16 3 16 -76 18 -97
2 -18 -13 -18 -15 3 -56 21 -40 21 -44 6 -67 -32 -49 -46 -52 -276 -56 -253
-4 -255 -3 -246 74 12 102 55 135 212 163 133 23 226 45 263 61 33 15 41 41
20 62 -16 16 -38 15 -38 -2 0 -8 -10 -22 -22 -30 -26 -19 -39 -11 -14 7 16 12
17 19 6 71 -18 90 -18 90 113 82 61 -4 120 -10 130 -13z m687 -77 c0 -71 -16
-81 -25 -15 -6 39 -11 49 -24 47 -13 -3 -16 -16 -14 -78 l2 -75 63 2 63 2 -38
-14 c-55 -21 -96 -53 -103 -80 -5 -20 -10 -23 -39 -18 -33 5 -75 -10 -75 -27
0 -6 33 -10 75 -10 71 0 77 2 112 33 81 71 89 74 193 70 292 -11 273 -5 293
-81 8 -31 18 -64 21 -73 4 -9 -1 -26 -12 -39 -17 -21 -30 -24 -133 -31 -63 -4
-172 -8 -242 -8 l-128 -1 -16 28 -16 27 -131 3 c-72 2 -135 7 -140 12 -5 5 -5
29 -2 55 8 53 52 109 93 120 39 9 52 33 53 92 0 55 -12 72 -35 53 -12 -10 -15
-9 -15 5 0 10 -5 15 -13 12 -10 -4 -13 2 -9 19 4 24 6 24 123 24 l119 0 0 -54z
m-210 -61 c0 -14 -4 -25 -9 -25 -4 0 -6 11 -3 25 2 14 6 25 8 25 2 0 4 -11 4
-25z m-400 -290 c0 -6 -66 -22 -123 -29 -36 -4 -48 -3 -45 7 3 7 32 14 74 18
38 3 75 6 82 7 6 1 12 0 12 -3z m470 -35 l65 -7 -95 -1 c-52 -1 -102 3 -110 8
-18 11 40 12 140 0z"/>
<path d="M2465 3674 c-33 -2 -141 -8 -240 -14 -368 -22 -476 -40 -594 -99
-153 -78 -231 -266 -231 -559 0 -220 53 -420 140 -531 71 -90 213 -165 421
-222 l114 -32 360 -5 c408 -5 747 10 883 38 171 35 302 130 354 258 22 55 23
66 23 357 0 337 -7 393 -70 524 -36 74 -105 157 -160 191 -104 64 -287 90
-670 95 -148 1 -297 1 -330 -1z m351 -121 c-2 -10 -8 -75 -11 -145 -6 -101
-10 -128 -22 -133 -9 -3 -17 -4 -19 -3 -1 2 2 69 9 151 9 134 12 147 29 147
14 0 18 -5 14 -17z m76 -140 l-4 -151 -25 11 c-25 11 -25 12 -19 107 11 149
16 178 35 183 9 2 16 3 17 3 0 -1 -1 -69 -4 -153z m85 60 c-4 -54 -7 -140 -7
-192 l0 -94 -21 28 c-21 26 -22 34 -16 177 5 143 13 178 40 178 7 0 8 -33 4
-97z m88 25 c-9 -110 -45 -985 -45 -1103 0 -63 -4 -106 -11 -110 -6 -4 -11 -5
-12 -4 -1 2 1 105 4 229 4 124 10 410 14 635 4 226 9 413 12 418 2 4 13 7 24
7 20 0 20 -4 14 -72z m-509 -571 c-2 -342 -5 -630 -7 -639 -2 -13 -13 -18 -34
-18 l-30 0 7 108 c17 277 30 748 25 949 -4 201 -3 222 12 226 9 2 19 2 23 0 4
-2 6 -284 4 -626z m89 591 c-6 -54 -19 -826 -16 -973 0 -60 4 -145 7 -187 5
-66 9 -78 24 -78 10 0 21 5 23 10 3 6 4 5 3 -2 -2 -8 -19 -13 -44 -13 l-42 0
0 610 c0 346 -4 624 -9 643 -9 32 -9 32 25 32 l34 0 -5 -42z m86 -113 c-3
-132 -6 -154 -25 -185 l-21 -35 -3 95 c-2 52 0 137 3 188 7 88 8 93 28 90 22
-3 22 -6 18 -153z m412 93 c-2 -35 -10 -236 -18 -448 -9 -212 -20 -450 -26
-530 -6 -80 -9 -158 -6 -175 5 -37 -1 -55 -19 -55 -12 0 -14 34 -14 198 1 108
5 229 10 267 6 39 14 214 20 390 10 365 15 415 39 415 14 0 16 -10 14 -62z
m-778 -81 l0 -127 -34 0 -33 0 7 123 c7 121 14 140 45 134 12 -2 15 -24 15
-130z m110 -43 c4 -96 5 -178 2 -181 -3 -2 -13 12 -23 32 -9 20 -27 42 -40 47
-19 9 -21 14 -13 35 5 13 9 71 9 128 0 108 0 109 46 114 8 1 14 -55 19 -175z
m755 17 c0 -81 -9 -251 -20 -377 -11 -126 -24 -335 -29 -466 -5 -130 -12 -241
-15 -247 -4 -6 -16 -11 -26 -11 -16 0 -18 4 -10 28 8 25 31 520 47 1023 l6
206 24 -5 c23 -4 23 -5 23 -151z m-1134 -165 c-4 -165 -12 -429 -18 -586 -6
-157 -11 -300 -11 -318 0 -24 -4 -31 -16 -28 -65 18 -63 17 -47 34 12 15 16
94 21 542 4 289 7 557 8 595 l2 70 34 -4 34 -3 -7 -302z m87 246 c3 -37 3 -95
0 -128 -3 -37 -1 -69 6 -82 9 -17 7 -27 -14 -57 -34 -51 -40 -92 -20 -145 9
-25 17 -52 16 -60 -19 -320 -30 -688 -21 -702 9 -16 6 -18 -26 -18 -32 0 -35
2 -24 15 9 11 15 100 21 328 17 675 19 755 25 835 7 105 28 114 37 14z m85
-57 c-2 -79 1 -125 7 -126 6 0 -1 -5 -14 -10 -13 -5 -26 -8 -28 -6 -2 3 -6 63
-8 136 l-4 131 25 0 26 0 -4 -125z m-283 103 c2 -7 1 -274 -3 -592 -6 -517 -9
-580 -23 -589 -19 -12 -90 9 -187 55 -53 25 -61 32 -48 41 13 10 15 83 18 528
3 540 4 549 46 549 13 0 14 -20 9 -162 -4 -90 -10 -336 -14 -548 -6 -353 -5
-386 11 -399 9 -8 18 -12 20 -10 2 2 8 253 14 558 10 573 10 570 50 571 14 0
19 -379 12 -785 -8 -389 -9 -379 18 -383 l22 -3 0 590 0 591 25 0 c14 0 28 -6
30 -12z m1310 6 c14 -6 15 -32 10 -273 -7 -330 -21 -556 -40 -692 -18 -127
-19 -221 -3 -237 8 -8 9 -12 1 -12 -6 0 -19 -3 -29 -7 -16 -6 -17 8 -11 228 4
129 13 302 22 384 8 83 18 255 22 383 3 127 7 232 9 232 1 0 10 -3 19 -6z m94
-53 c16 -29 -22 -1090 -40 -1123 -5 -10 -14 -18 -19 -18 -4 0 -14 -2 -22 -5
-19 -8 -20 56 -2 195 17 129 43 646 44 847 0 115 2 132 15 127 9 -4 19 -14 24
-23z m-1683 -233 c-3 -134 -7 -370 -8 -525 l-2 -281 -43 30 c-35 25 -40 34
-33 49 6 10 10 128 10 271 0 139 3 345 7 457 5 179 9 207 25 223 10 10 25 18
34 18 15 0 16 -22 10 -242z m1756 -179 c-1 -206 -5 -447 -8 -536 l-7 -161 -24
-5 c-25 -5 -25 -4 -19 52 3 31 10 247 15 481 11 458 17 553 35 547 8 -3 10
-107 8 -378z m-1856 338 c-3 -13 -10 -210 -16 -437 -6 -228 -12 -416 -14 -417
-7 -8 -47 90 -47 115 0 15 4 104 10 197 5 94 10 249 10 345 1 142 4 180 17
198 21 30 48 30 40 -1z m1925 -466 c-7 -291 -7 -430 0 -443 8 -15 6 -26 -8
-46 -18 -26 -18 -21 -21 263 -2 160 0 377 3 484 6 166 9 191 21 179 12 -12 13
-77 5 -437z m-2023 154 c-12 -312 -20 -354 -35 -185 -6 69 -10 139 -8 155 25
195 42 291 51 283 1 -2 -2 -116 -8 -253z m2092 229 c0 -15 5 -44 12 -66 9 -30
9 -50 0 -86 -18 -71 -28 -587 -13 -606 9 -11 10 -20 1 -35 -26 -49 -30 -15
-30 247 0 316 10 572 22 572 4 0 8 -12 8 -26z m-1296 -63 c3 -4 17 -6 30 -4
51 10 106 -45 106 -104 0 -62 -69 -155 -126 -169 -29 -8 -86 32 -109 76 -32
62 -9 143 53 189 30 23 38 25 46 12z m577 -34 c47 -31 61 -62 53 -117 -17
-125 -124 -172 -196 -86 -46 54 -40 130 14 191 37 42 78 46 129 12z m-406
-154 c-4 -16 -23 -514 -28 -715 l-2 -78 -32 0 c-29 0 -33 3 -39 37 -4 20 -4
172 0 337 l7 301 26 35 c14 19 34 50 45 68 23 36 28 40 23 15z m489 -280 c-3
-137 -9 -293 -14 -348 -5 -55 -6 -112 -3 -127 4 -24 2 -28 -16 -28 l-22 0 3
328 c3 318 4 328 26 375 13 26 25 47 27 47 2 0 2 -111 -1 -247z m-264 124 c-3
-45 -5 -193 -5 -329 0 -136 -3 -242 -7 -235 -24 44 -20 683 5 658 7 -7 9 -41
7 -94z m-465 -263 c0 -170 -3 -321 -8 -336 -4 -17 -14 -28 -25 -28 -16 0 -17
19 -11 279 7 310 15 404 33 398 8 -3 11 -89 11 -313z m544 287 c20 -13 5 -625
-16 -647 -18 -18 -40 -13 -33 7 3 8 8 156 11 329 3 173 6 316 7 318 4 4 17 2
31 -7z m-443 -88 c-3 -49 -7 -182 -8 -298 0 -115 -5 -221 -10 -234 -6 -17 -5
-27 4 -33 9 -5 7 -8 -7 -8 -40 0 -43 10 -34 100 4 47 8 192 8 323 l1 237 26 0
27 0 -7 -87z m527 -240 c-4 -315 -5 -328 -24 -331 -18 -3 -27 17 -13 30 3 3 5
136 4 294 0 248 2 292 15 312 9 12 17 22 19 22 1 0 1 -147 -1 -327z m774 55
c-2 -18 -4 -4 -4 32 0 36 2 50 4 33 2 -18 2 -48 0 -65z"/>
<path d="M2212 1358 c-16 -16 -15 -53 1 -67 19 -15 27 -4 27 41 0 39 -8 46
-28 26z"/>
<path d="M2894 1387 c-7 -19 13 -94 27 -103 18 -11 25 13 19 63 -4 35 -10 49
-23 51 -9 2 -20 -3 -23 -11z"/>
<path d="M2794 1095 c-4 -9 -4 -18 -1 -21 3 -3 55 -7 116 -9 84 -2 111 0 111
10 0 24 -26 31 -123 34 -82 2 -98 0 -103 -14z"/>
<path d="M4047 954 c-17 -18 -6 -35 21 -32 16 2 27 9 27 18 0 16 -36 26 -48
14z"/>
<path d="M1295 920 c-3 -5 -4 -14 0 -20 8 -13 35 -1 35 16 0 16 -26 19 -35 4z"/>
<path d="M1177 910 c-63 -12 -70 -30 -11 -29 60 1 96 11 102 27 4 13 -29 14
-91 2z"/>
</g>
</svg>
